<?xml version="1.0" encoding="UTF-8" standalone="no"?>
<svg
   xmlns:dc="http://purl.org/dc/elements/1.1/"
   xmlns:cc="http://creativecommons.org/ns#"
   xmlns:rdf="http://www.w3.org/1999/02/22-rdf-syntax-ns#"
   xmlns:svg="http://www.w3.org/2000/svg"
   xmlns="http://www.w3.org/2000/svg"
   xmlns:xlink="http://www.w3.org/1999/xlink"
   id="svg24"
   version="1.1"
   viewBox="0 0 218 158"
   height="158"
   width="218">
  <metadata
     id="metadata28">
    <rdf:RDF>
      <cc:Work
         rdf:about="">
        <dc:format>image/svg+xml</dc:format>
        <dc:type
           rdf:resource="http://purl.org/dc/dcmitype/StillImage" />
      </cc:Work>
    </rdf:RDF>
  </metadata>
  <title
     id="title2">Logo</title>
  <desc
     id="desc4">Created using Figma</desc>
  <g
     transform="translate(331 1429)"
     id="Canvas">
    <g
       id="Logo">
      <g
         id="G">
        <use
           id="use6"
           transform="translate(-260.569 -1440.29)"
           xlink:href="#path0_fill" />
      </g>
      <g
         id="Polygon">
        <mask
           id="mask0_outline_ins">
          <use
             id="use9"
             transform="matrix(-0.999999 -0.0011536 0.000983305 -1 -116.505 -1271)"
             fill="white"
             xlink:href="#path1_fill" />
        </mask>
        <g
           id="g14"
           mask="url(#mask0_outline_ins)">
          <use
             id="use12"
             transform="matrix(-0.999999 -0.0011536 0.000983305 -1 -116.505 -1271)"
             xlink:href="#path2_stroke_2x" />
        </g>
      </g>
    </g>
  </g>
  <defs
     id="defs22">
    <path
       d="M 57.1143 52.5776C 64.4287 58.4224 70.0854 64.6943 74.0845 71.3936C 66.2915 87.2871 54.3286 98.9595 38.1958 106.411C 15.2954 97.1821 3.84521 83.2197 3.84521 64.5234C 3.84521 63.1562 3.91357 61.772 4.05029 60.3706C 14.7144 44.9214 26.5405 34.5649 39.5288 29.3013C 46.6382 34.2573 56.3623 38.3247 68.7012 41.5034L 57.1143 52.5776ZM 38.5034 43.9644C 38.1958 47.4165 38.042 50.4756 38.042 53.1416C 38.042 55.8076 38.0762 58.0464 38.1445 59.8579C 40.0244 58.1147 41.9556 56.3716 43.938 54.6284C 45.9204 52.8853 47.8516 51.1079 49.7314 49.2964C 46.792 47.0063 43.0493 45.229 38.5034 43.9644ZM 38.2471 62.3701C 38.418 66.5059 38.7427 70.6245 39.2212 74.7261C 35.6665 75.3755 31.4795 77.7168 26.6602 81.75C 29.4629 84.3135 32.6587 86.6548 36.2476 88.7739C 39.8706 90.8931 43.2544 91.9526 46.3989 91.9526C 47.2876 91.9526 48.1763 91.8843 49.0649 91.7476C 54.7046 90.8247 57.8662 88.3125 58.5498 84.2109C 58.7207 83.1172 58.8062 82.0576 58.8062 81.0322C 58.8062 78.1611 58.1396 75.6147 56.8066 73.3931C 55.4736 71.1372 53.2861 68.9497 50.2441 66.8306C 47.2021 64.6772 43.2031 63.1904 38.2471 62.3701ZM 22.8662 78.0073C 23.7549 76.0591 24.2676 73.8203 24.4043 71.291L 24.8657 53.4492C 24.8999 51.9111 24.3872 49.9287 23.3276 47.502C 22.7808 47.9805 22.2852 48.5444 21.8408 49.1938C 18.7305 53.3638 17.1753 58.0464 17.1753 63.2417C 17.1753 68.8813 19.0723 73.8032 22.8662 78.0073Z"
       id="path0_fill" />
    <path
       d="M 111.296 0L 214.495 154.123L 0 154.123L 111.296 0Z"
       id="path1_fill" />
    <path
       d="M 111.296 0L 112.127 -0.556379L 111.327 -1.75105L 110.485 -0.585438L 111.296 0ZM 214.495 154.123L 214.495 155.123L 216.368 155.123L 215.326 153.567L 214.495 154.123ZM 0 154.123L -0.810717 153.538L -1.9556 155.123L 0 155.123L 0 154.123ZM 110.465 0.556379L 213.664 154.68L 215.326 153.567L 112.127 -0.556379L 110.465 0.556379ZM 214.495 153.123L 0 153.123L 0 155.123L 214.495 155.123L 214.495 153.123ZM 0.810717 154.709L 112.107 0.585438L 110.485 -0.585438L -0.810717 153.538L 0.810717 154.709Z"
       id="path2_stroke_2x" />
  </defs>
</svg>
